<svg xmlns="http://www.w3.org/2000/svg" width="16" height="16" viewBox="0 0 1024 1024"><defs/><path d="M678.562 485.027l0.166-0.289c-22.253-12.692-45.741-23.696-70.383-32.268 54.889-41.783 90.491-107.471 90.576-181.771 0.083-126.138-102.032-228.586-228.131-228.707-126.183-0.125-228.545 102.115-228.71 228.256 0 74.298 35.439 140.111 90.25 181.935C167.244 509.255 48.401 665.519 48.234 850.014c0 19.323 15.662 35.065 35.11 35.108 19.287 0 35.11-15.701 35.11-35.028 0.164-194.094 157.665-351.344 351.758-351.14 60.163 0.083 116.703 15.248 166.237 41.991l0.741-1.029c6.427 7.294 15.658 11.95 26.043 11.95 19.45 0 35.274-15.661 35.274-35.068 0.001-14.093-8.158-26.084-19.945-31.771z m-208.268-56.374c-87.279-0.083-157.993-70.964-157.993-158.284 0.167-87.239 71.043-157.952 158.323-157.868 87.283 0.08 157.997 70.959 157.83 158.198-0.001 87.324-70.878 158.037-158.16 157.954zM979.224 738.379h-0.165c-0.989-8.529-7.582-15.291-16.154-16.153h-9.889v-0.124c-10.715 0-19.78-6.138-24.23-15.083-0.991-2.226-1.812-4.577-2.227-7.049-2.062-5.562-4.287-10.957-6.842-16.234h-0.083c-1.234-1.979-2.226-3.956-2.967-6.103v-0.038c-0.987-2.804-1.646-5.892-1.646-8.983 0.082-7.5 3.05-14.301 7.992-19.204l5.443-5.522c0.161 0 0.161-0.082 0.328-0.166 0-0.039 0.162-0.119 0.162-0.204 6.432-6.592 6.76-16.896 1.071-23.899l0.082-0.125a259.09 259.09 0 0 0-13.185-14.504c-4.78-4.743-9.811-9.315-14.999-13.561v0.085c-6.346-5.234-15.495-5.398-22.008-0.616l-3.953 3.953-3.795 3.711-0.082-0.207c-7.91 7.912-19.533 9.891-29.255 5.933-1.323-0.491-2.555-1.111-3.795-1.854-6.262-3.048-12.688-5.686-19.363-7.994-1.155-0.287-2.228-0.7-3.381-1.114v-0.079a28.236 28.236 0 0 1-8.985-5.934c-4.284-4.371-6.922-9.973-7.581-15.742a23.33 23.33 0 0 1 0-6.758v-4.659c0-8.901-6.43-16.234-14.835-17.762-1.155-0.16-2.143-0.202-3.213-0.286a215.895 215.895 0 0 0-18.051-0.784c-6.101 0-12.034 0.251-17.968 0.784-1.071 0.041-2.144 0.166-3.296 0.286-8.406 1.485-14.833 8.817-14.833 17.681v8.079c0 11.619-7.417 21.508-17.641 25.343-0.658 0.245-1.316 0.454-1.976 0.658a166.992 166.992 0 0 0-20.933 8.653h-0.167c-0.496 0.332-0.988 0.535-1.566 0.823-3.543 1.565-7.169 2.476-11.29 2.476a26.97 26.97 0 0 1-19.121-7.956v0.082l-5.771-5.729c-6.264-6.302-15.987-7.005-22.992-2.144-0.742 0.7-1.651 1.364-2.392 1.98l-0.08 0.127c-4.618 3.953-9.068 7.95-13.269 12.193-4.288 4.244-8.411 8.656-12.199 13.232 0 0-0.084 0-0.084 0.038-0.658 0.78-1.399 1.606-2.062 2.473-4.942 7.049-4.284 16.771 1.98 23.034l5.768 5.688c8.16 8.239 9.973 20.438 5.442 30.369-0.327 0.62-0.496 1.236-0.991 1.852a167.266 167.266 0 0 0-8.568 20.814c-0.166 0.741-0.496 1.524-0.824 2.266v0.043a25.43 25.43 0 0 1-6.102 9.351c-5.271 5.274-12.276 7.955-19.121 7.955v0.084l-8.076-0.042c-8.901 0-16.318 6.386-17.802 14.832-0.164 1.07-0.164 2.106-0.329 3.217-0.494 5.812-0.742 12.033-0.742 18.048v0.248c0 6.017 0.248 11.949 0.742 17.72 0.082 1.112 0.165 2.141 0.329 3.254 1.483 8.406 8.822 14.836 17.64 14.836l8.157 0.041c11.456 0 21.35 7.209 25.221 17.35v0.041c0.246 0.658 0.495 1.359 0.576 2.018 0.083 0.043 0.083 0.124 0.166 0.166a170.132 170.132 0 0 0 8.572 20.975c0 0.041 0 0.084 0.084 0.122 0.408 0.496 0.574 1.074 0.904 1.649 1.483 3.421 2.392 7.25 2.392 11.249 0 7.458-3.05 14.262-7.914 19.082l0.084 0.043-5.605 5.521c0 0.042-0.083 0.121-0.167 0.121-0.08 0.124-0.162 0.167-0.243 0.25-6.021 6.223-6.678 15.655-2.062 22.619a70.293 70.293 0 0 1 2.39 2.765c3.875 4.572 7.913 8.902 12.114 13.229 4.205 4.2 8.572 8.243 13.19 12.072 0.82 0.824 1.813 1.567 2.635 2.352 6.347 4.199 14.673 4.038 20.771-0.371l3.955-3.959 3.709-3.707 0.166 0.121c8.244-8.158 20.438-10.014 30.409-5.478 0.497 0.245 0.991 0.536 1.484 0.738 0 0 0.085 0 0.166 0.128 6.761 3.418 13.844 6.306 21.101 8.816 0.575 0.164 1.233 0.37 1.812 0.575 3.626 1.32 6.923 3.423 9.724 6.225 5.275 5.315 7.996 12.195 7.996 19.159h0.081l-0.081 7.956c0 9.315 7.169 17.062 16.237 17.965v0.125c6.426 0.658 13.103 0.946 19.778 0.946 6.76 0 13.438-0.245 19.945-0.904v-0.124c9.063-0.909 16.153-8.613 16.153-17.924l0.084-8.04c0-10.877 6.347-20.232 15.577-24.516a24.245 24.245 0 0 1 5.936-1.938c5.931-2.101 11.702-4.451 17.308-7.209 1.646-1.07 3.46-1.938 5.271-2.639 2.968-1.069 6.101-1.69 9.397-1.69a27.162 27.162 0 0 1 17.966 6.886c0.825 0.7 1.648 1.482 2.309 2.268l4.613 4.612c6.348 6.305 16.318 6.964 23.326 1.895 0.081 0 0.081 0 0.165-0.083 0.575-0.453 1.07-0.904 1.646-1.441 4.781-3.996 9.314-8.159 13.766-12.527 4.285-4.367 8.568-8.902 12.527-13.683 0.491-0.617 0.987-1.233 1.483-1.812 4.942-6.837 4.613-16.279-1.153-22.623v-0.038l-1.323-1.28-5.026-5.026v-0.042c-8.075-8.077-9.972-19.944-5.688-29.834 0.333-0.91 0.825-1.855 1.322-2.68a148.303 148.303 0 0 0 8.405-20.276c0.328-0.865 0.496-1.811 0.986-2.637 1.155-3.379 3.298-6.552 5.936-9.271 5.443-5.193 12.366-7.911 19.12-7.911h7.915v-0.126c9.561 0 17.553-7.539 17.966-17.02l0.249 0.042c0.574-6.264 0.903-12.61 0.903-18.915 0.001-6.76-0.328-13.436-0.986-19.987zM763.291 887.922c-71.706-0.038-129.729-58.27-129.729-129.932 0.084-71.7 58.189-129.805 129.891-129.762 71.784 0.078 129.807 58.308 129.725 130.012 0.001 71.66-58.186 129.767-129.887 129.682z"/></svg>